<?xml version="1.0" encoding="UTF-8"?>
<svg xmlns="http://www.w3.org/2000/svg" xmlns:xlink="http://www.w3.org/1999/xlink" width="32pt" height="32pt" viewBox="0 0 32 32" version="1.1">
<g id="surface11542899">
<path style=" stroke:none;fill-rule:nonzero;fill:rgb(90.196078%,49.411765%,13.333333%);fill-opacity:1;" d="M 14.519531 4.007812 C 14.238281 4 14 4.230469 14 4.519531 L 14 6.5 C 14 6.78125 14.21875 7 14.5 7 L 14.5 7.019531 C 20.730469 7.257812 25.742188 12.269531 25.980469 18.5 L 26 18.5 C 26 18.78125 26.21875 19 26.5 19 L 28.480469 19 C 28.769531 19 29 18.761719 28.992188 18.480469 C 28.71875 10.621094 22.378906 4.28125 14.519531 4.007812 Z M 14.519531 9.007812 C 14.238281 9 14 9.238281 14 9.519531 L 14 11.5 C 14 11.78125 14.21875 12 14.5 12 L 14.5 12.027344 C 17.96875 12.257812 20.742188 15.03125 20.972656 18.5 L 21 18.5 C 21 18.78125 21.21875 19 21.5 19 L 23.480469 19 C 23.761719 19 24 18.761719 23.992188 18.480469 C 23.71875 13.378906 19.621094 9.28125 14.519531 9.007812 Z M 5.5 10 C 5.21875 10 5 10.21875 5 10.5 L 5 21.5 C 5 25.078125 7.921875 28 11.5 28 C 15.078125 28 18 25.078125 18 21.5 C 18 17.921875 15.078125 15 11.5 15 C 11.21875 15 11 15.21875 11 15.5 L 11 18.5 C 11 18.78125 11.21875 19 11.5 19 C 12.878906 19 14 20.121094 14 21.5 C 14 22.878906 12.878906 24 11.5 24 C 10.121094 24 9 22.878906 9 21.5 L 9 10.5 C 9 10.21875 8.78125 10 8.5 10 Z M 5.5 10 "/>
</g>
</svg>
